# xmcd CD database file
#
# Track frame offsets:
#	150
#	19074
#	36787
#	54491
#	80644
#	96326
#	117493
#	137872
#	156699
#	169228
#	189685
#
# Disc length: 2731 seconds
#
# Revision: 3
# Processed by: cddbd v1.5.2PL0 Copyright (c) Steve Scherf et al.
# Submitted via: CDex 1.70beta2
#
DISCID=9f0aa90b
DTITLE=EUGENE HIDEAWAY BRIDGES - MAN WITHOUT A HOME
DYEAR=2000
DGENRE=Blues
TTITLE0=I Used To Sing Love Songs
TTITLE1=You Gonna' Miss Me
TTITLE2=Bluesman
TTITLE3=Man Without A Country, Man Without A Home
TTITLE4=Movin' And A Groovin'
TTITLE5=Pay The Rent
TTITLE6=I'm Falling In Love
TTITLE7=Won't Be Your Fool
TTITLE8=Hideaway Slim
TTITLE9=Always
TTITLE10=I Found It
EXTD=YEAR: 2000
EXTT0=
EXTT1=
EXTT2=
EXTT3=
EXTT4=
EXTT5=
EXTT6=
EXTT7=
EXTT8=
EXTT9=
EXTT10=
PLAYORDER=
